# xmcd
# 
# Track frame offsets:
#     180
#     19116
#     38430
#     59540
#     79282
#     95186
#     110582
#     131177
#     151363
#     169680
#     188060
#     206653
#     225149
# 
# Disc length: 3206
# 
# Revision: 5
# Processed by: cddbd v1.5.2PL0 Copyright (c) Steve Scherf et al.
# Submitted via: fre:ac v1.0.17
# 
DISCID=a80c840d
DTITLE=Hellbillies - Drag
DYEAR=1996
DGENRE=Folk
TTITLE0=Gode spørsmål
TTITLE1=No har eg tenkt å gå
TTITLE2=Drag
TTITLE3=Plenklyppar'n
TTITLE4=På Ål stasjon
TTITLE5=Jimmy Embrik
TTITLE6=Må eg?
TTITLE7=Bondeblå
TTITLE8=Dårleg tid
TTITLE9=Mas, mas
TTITLE10=Hjortefot
TTITLE11=Voggesang
TTITLE12=Tvil på travbanen
EXTD=
EXTT0=
EXTT1=
EXTT2=
EXTT3=
EXTT4=
EXTT5=
EXTT6=
EXTT7=
EXTT8=
EXTT9=
EXTT10=
EXTT11=
EXTT12=
PLAYORDER=
